<svg class="material-icons md-18 md-dark" viewBox="0 0 510 510" version="1.1" xmlns="http://www.w3.org/2000/svg" xmlns:xlink="http://www.w3.org/1999/xlink">
    <g><g id="strava-logo"><path d="M459,0 C487.05,0 510,22.95 510,51 L510,459 C510,487.05 487.05,510 459,510 L51,510 C22.95,510 0,487.05 0,459 L0,51 C0,22.95 22.95,0 51,0 L459,0 Z M139.150391,278.396484 L197.076172,278.396484 L234.005859,205.207031 L271.486328,278.396484 L328.751953,278.396484 L234.005859,90.7675781 L139.150391,278.396484 Z M229.570007,280.140625 L300.070007,420.089844 L372.44696,280.140625 L328.304382,280.140625 L300.070007,334.886719 L273.237976,280.140625 L229.570007,280.140625 Z" id="Combined-Shape"></path>
        </g>
    </g>
</svg>
